<?xml version="1.0" standalone="no"?>
<!DOCTYPE svg PUBLIC "-//W3C//DTD SVG 20010904//EN"
 "http://www.w3.org/TR/2001/REC-SVG-20010904/DTD/svg10.dtd">
<svg version="1.0" xmlns="http://www.w3.org/2000/svg"
 width="240.000000pt" height="240.000000pt" viewBox="0 0 240.000000 240.000000"
 preserveAspectRatio="xMidYMid meet">
<metadata>
Created by potrace 1.14, written by Peter Selinger 2001-2017
</metadata>
<g transform="translate(0.000000,240.000000) scale(0.100000,-0.100000)"
fill="#000000" stroke="none">
<path d="M1162 2208 c-16 -21 -46 -82 -44 -90 1 -5 -2 -8 -7 -8 -9 0 -57 -120
-53 -132 1 -5 -2 -8 -6 -8 -5 0 -9 -6 -10 -12 -5 -41 -15 -78 -21 -78 -4 0 -8
-6 -9 -12 -2 -23 -7 -43 -16 -57 -7 -10 -5 -12 5 -6 11 6 12 5 2 -6 -7 -7 -13
-24 -13 -37 0 -15 -4 -21 -12 -16 -8 5 -9 2 -5 -11 4 -9 2 -24 -4 -31 -6 -8
-8 -14 -4 -14 4 0 1 -8 -6 -17 -12 -14 -12 -15 -1 -9 12 7 12 4 2 -14 -6 -12
-9 -28 -6 -36 3 -8 1 -14 -5 -14 -6 0 -7 -4 -4 -10 3 -5 0 -10 -7 -10 -9 0 -9
-3 2 -10 12 -7 12 -12 2 -22 -6 -6 -12 -22 -12 -35 0 -13 -4 -23 -8 -23 -14 0
-32 23 -32 41 0 10 -6 24 -12 31 -7 7 -14 20 -16 28 -2 8 -7 16 -12 18 -5 2
-6 10 -3 19 4 9 0 21 -8 27 -8 6 -28 39 -44 74 -16 34 -33 62 -36 62 -7 0 -19
26 -19 43 0 4 -8 15 -17 25 -33 35 -53 62 -45 62 4 0 2 4 -4 8 -5 4 -18 18
-28 32 -10 14 -16 17 -13 8 4 -10 2 -18 -3 -18 -5 0 -5 -12 -1 -27 5 -16 7
-36 5 -45 -1 -10 2 -18 8 -18 7 0 7 -4 0 -13 -7 -8 -7 -18 -2 -27 5 -9 5 -19
-1 -26 -7 -8 -6 -14 1 -19 6 -3 7 -11 4 -17 -4 -6 -9 -27 -10 -47 -8 -77 -24
-144 -38 -153 -8 -5 -7 -8 2 -8 8 0 9 -5 3 -17 -19 -36 -40 -101 -34 -107 4
-3 2 -6 -4 -6 -5 0 -10 -7 -11 -15 -1 -8 -3 -22 -4 -30 -1 -8 -4 -15 -8 -15
-3 0 -7 -10 -7 -22 -1 -13 -4 -32 -6 -43 -3 -11 -6 -24 -6 -28 -1 -5 -5 -6 -9
-3 -5 3 -16 -4 -25 -15 -9 -10 -14 -19 -10 -19 4 0 0 -6 -9 -12 -32 -25 -71
-199 -47 -213 5 -4 5 -14 -2 -27 -7 -12 -7 -23 -2 -27 5 -3 9 -15 10 -26 0
-29 7 -49 18 -57 6 -5 5 -8 -3 -8 -10 0 -9 -4 2 -16 9 -8 14 -19 11 -24 -3 -5
-1 -11 5 -15 5 -3 10 -15 10 -26 0 -10 5 -19 10 -19 6 0 10 -9 10 -21 0 -11 4
-17 10 -14 9 5 15 -24 11 -48 -1 -5 3 -6 9 -2 5 3 10 -1 10 -10 0 -9 13 -30
29 -46 16 -16 27 -29 23 -29 -3 0 4 -9 16 -20 12 -11 28 -20 37 -20 9 0 13 -4
10 -10 -3 -5 1 -10 10 -10 9 0 13 -4 10 -10 -3 -6 1 -7 9 -4 9 4 18 -1 22 -10
3 -9 10 -14 14 -11 4 2 18 -4 30 -15 12 -11 27 -17 31 -14 5 3 9 0 9 -5 0 -6
5 -11 12 -11 6 0 20 -7 30 -17 14 -13 18 -13 18 -2 1 10 4 9 11 -3 5 -10 21
-18 34 -18 17 0 25 -6 25 -17 0 -15 2 -16 10 -3 9 13 10 13 10 0 0 -9 3 -11 8
-5 4 6 148 10 397 9 267 -1 395 3 404 10 11 8 13 8 7 -1 -5 -9 -2 -11 8 -7 9
3 14 10 11 14 -3 4 2 11 11 14 8 3 13 10 9 15 -3 5 -1 12 5 16 6 4 8 11 4 16
-3 5 0 16 6 24 7 8 10 21 7 30 -4 8 -2 17 3 20 4 3 7 13 5 23 -1 9 2 25 7 35
5 9 5 17 0 17 -11 0 -9 53 3 62 6 5 5 8 -4 8 -10 0 -11 3 -2 14 8 9 8 16 2 20
-5 4 -8 15 -6 26 2 11 -1 20 -6 20 -6 0 -7 4 -4 10 3 5 1 10 -4 10 -6 0 -11 6
-11 14 0 8 -8 17 -18 20 -9 3 -26 18 -37 33 -11 15 -30 37 -42 49 -13 12 -23
26 -23 33 0 6 -4 11 -10 11 -5 0 -10 7 -10 16 0 8 -4 13 -9 10 -14 -9 -34 50
-25 76 4 13 9 26 10 31 1 4 3 9 4 12 1 3 3 13 4 23 1 9 5 23 10 31 5 7 5 16 0
20 -12 8 -11 44 1 53 6 5 5 8 -4 8 -8 0 -11 7 -8 20 3 11 1 20 -4 20 -5 0 -8
3 -7 8 3 14 -14 62 -23 62 -5 0 -8 3 -8 8 3 12 -25 72 -33 72 -4 0 -8 12 -8
26 0 14 -4 23 -10 19 -5 -3 -10 3 -10 14 0 11 -5 32 -12 48 -6 15 -12 38 -13
50 0 12 -4 25 -8 29 -11 12 -8 26 4 18 8 -4 8 -1 2 12 -5 11 -8 35 -6 54 2 19
4 47 5 63 1 15 6 27 10 27 5 0 6 5 2 11 -3 6 -3 14 2 18 5 3 15 17 22 30 11
19 11 22 0 15 -7 -5 2 11 20 34 19 23 31 42 29 42 -3 0 10 16 29 36 19 20 34
41 34 46 0 5 4 7 8 4 4 -2 14 5 22 17 12 19 11 21 -2 10 -8 -7 -18 -10 -21 -6
-4 3 -7 1 -7 -6 0 -7 -4 -10 -9 -7 -4 3 -16 -3 -26 -14 -10 -11 -21 -17 -25
-15 -4 3 -11 -2 -14 -11 -4 -9 -9 -14 -13 -11 -3 4 -17 -6 -29 -21 -13 -15
-24 -24 -24 -21 0 4 -17 -10 -37 -29 -21 -20 -37 -40 -35 -45 1 -4 -1 -6 -6
-3 -9 5 -42 -28 -42 -44 0 -5 -9 -14 -20 -20 -11 -6 -19 -16 -17 -23 1 -7 -4
-11 -11 -9 -8 1 -11 -2 -7 -8 3 -5 1 -10 -6 -10 -7 0 -9 -3 -6 -6 4 -4 -2 -19
-13 -34 -11 -16 -20 -31 -20 -35 0 -3 -6 -13 -14 -21 -13 -12 -15 -11 -21 6
-3 11 -12 20 -18 20 -7 0 -6 4 3 10 12 7 12 10 1 10 -7 0 -11 6 -8 14 3 8 0
19 -6 25 -7 5 -14 22 -15 37 -1 15 -8 34 -15 42 -10 13 -9 14 3 7 12 -6 13 -5
3 6 -7 7 -13 25 -13 39 0 15 -3 30 -7 33 -3 4 -7 22 -9 39 -1 18 -4 47 -5 63
-2 17 -7 36 -13 44 -8 11 -8 13 0 8 7 -4 12 2 12 18 0 14 -5 22 -11 18 -6 -4
-7 -1 -1 8 4 8 9 30 11 49 1 19 5 45 8 58 6 25 2 28 -13 10z"/>
</g>
</svg>
